<svg xmlns="http://www.w3.org/2000/svg" width="900" height="420" viewBox="0 0 900 420">
<defs>
  <linearGradient id="bg" x1="0" y1="0" x2="1" y2="1"><stop stop-color="#07111d"/><stop offset="1" stop-color="#162944"/></linearGradient>
  <linearGradient id="armor" x1="0" y1="0" x2="0" y2="1"><stop stop-color="#d7edf7"/><stop offset="1" stop-color="#55718b"/></linearGradient>
  <linearGradient id="shield" x1="0" y1="0" x2="1" y2="1"><stop stop-color="#62e8ff" stop-opacity=".8"/><stop offset="1" stop-color="#29669c" stop-opacity=".35"/></linearGradient>
  <filter id="glow"><feGaussianBlur stdDeviation="5" result="b"/><feMerge><feMergeNode in="b"/><feMergeNode in="SourceGraphic"/></feMerge></filter>
</defs>
<rect width="900" height="420" rx="28" fill="url(#bg)"/>
<path d="M0 330L150 280l150 35 150-62 160 46 140-42 200 52v111H0z" fill="#252c38"/>
<g opacity=".35" stroke="#68dfff"><path d="M30 72h840M30 122h840M30 172h840"/><path d="M120 35v170M300 35v170M480 35v170M660 35v170"/></g>
<text x="450" y="38" text-anchor="middle" font-family="sans-serif" font-weight="800" font-size="24" fill="#eaf8ff">TAKE BACK PEACEKEEPER RESPONSE</text>

<!-- Survey drone -->
<g transform="translate(80 80)">
  <ellipse cx="105" cy="70" rx="88" ry="22" fill="#243a52" stroke="#79e9ff" stroke-width="4"/>
  <path d="M45 70L15 36h38M165 70l30-34h-38" fill="none" stroke="#a7d9eb" stroke-width="8"/>
  <circle cx="105" cy="70" r="34" fill="#102437" stroke="#d7f6ff" stroke-width="5"/>
  <circle cx="105" cy="70" r="15" fill="#64eaff" filter="url(#glow)"/>
  <path d="M105 104l-45 150h90z" fill="url(#shield)" opacity=".35"/>
  <circle cx="38" cy="68" r="6" fill="#ff5d7e"/><circle cx="172" cy="68" r="6" fill="#ff5d7e"/>
  <text x="105" y="310" text-anchor="middle" font-family="sans-serif" font-size="18" font-weight="800" fill="#c8f5ff">SURVEY DRONE</text>
  <text x="105" y="334" text-anchor="middle" font-family="sans-serif" font-size="12" fill="#86a9c0">SCAN • TRACE • MARK</text>
</g>

<!-- Patrol Deputy -->
<g transform="translate(325 66)">
  <circle cx="110" cy="55" r="42" fill="#2a3d53" stroke="#d5edf8" stroke-width="5"/>
  <path d="M75 50q35-46 70 0v19H75z" fill="#131f2c"/>
  <path d="M88 55h44" stroke="#65e7ff" stroke-width="8" filter="url(#glow)"/>
  <path d="M64 112l46-28 46 28 26 126-72 38-72-38z" fill="url(#armor)" stroke="#c7e7f3" stroke-width="5"/>
  <path d="M81 119h58l15 84-44 23-44-23z" fill="#1a2a3d"/>
  <path d="M100 130h20v52h-20zM84 146h52v20H84z" fill="#61e5ff" opacity=".8"/>
  <path d="M48 130l-34 89 32 10 30-76M172 128l38 67-25 16-39-58" fill="none" stroke="#9bb6c7" stroke-width="18"/>
  <path d="M182 196l46-30 12 17-45 35z" fill="#1b2635" stroke="#7ee9ff" stroke-width="3"/>
  <circle cx="228" cy="173" r="8" fill="#ffcc67"/>
  <text x="110" y="315" text-anchor="middle" font-family="sans-serif" font-size="18" font-weight="800" fill="#e8f8ff">PATROL DEPUTY</text>
  <text x="110" y="339" text-anchor="middle" font-family="sans-serif" font-size="12" fill="#9ab7c9">CAPTURE • RESTRAIN • EXTRACT</text>
</g>

<!-- Riot Vanguard -->
<g transform="translate(610 58)">
  <circle cx="110" cy="58" r="46" fill="#24374b" stroke="#ecf8ff" stroke-width="6"/>
  <path d="M66 53q44-51 88 0v25H66z" fill="#0d1825"/>
  <path d="M79 59h62" stroke="#ff8b63" stroke-width="10" filter="url(#glow)"/>
  <path d="M46 116l64-34 64 34 32 137-96 42-96-42z" fill="#6b7f91" stroke="#d9edf5" stroke-width="6"/>
  <path d="M72 126h76l20 93-58 27-58-27z" fill="#263b50"/>
  <path d="M95 137h30v65H95zM78 155h64v28H78z" fill="#ff9f5b" opacity=".78"/>
  <path d="M35 132L4 247l34 9 30-98M185 128l30 112-34 9-28-94" fill="none" stroke="#8fa5b5" stroke-width="22"/>
  <path d="M-8 116h74v151H-8z" rx="18" fill="url(#shield)" stroke="#72e7ff" stroke-width="5" opacity=".9"/>
  <path d="M5 142h48M5 170h48M5 198h48M5 226h48" stroke="#d9fbff" stroke-width="3" opacity=".65"/>
  <text x="110" y="324" text-anchor="middle" font-family="sans-serif" font-size="18" font-weight="800" fill="#fff3eb">RIOT VANGUARD</text>
  <text x="110" y="348" text-anchor="middle" font-family="sans-serif" font-size="12" fill="#b9a89e">BREACH • SHIELD WALL • RAID</text>
</g>
</svg>