<svg xmlns="http://www.w3.org/2000/svg" width="1440" height="420" viewBox="0 0 1440 420">
<defs>
  <linearGradient id="sky" x1="0" y1="0" x2="0" y2="1"><stop stop-color="#07101e"/><stop offset="1" stop-color="#152338"/></linearGradient>
  <linearGradient id="ground" x1="0" y1="0" x2="0" y2="1"><stop stop-color="#626c79"/><stop offset=".42" stop-color="#3f4856"/><stop offset="1" stop-color="#1e2632"/></linearGradient>
  <radialGradient id="crater"><stop stop-color="#111823"/><stop offset=".58" stop-color="#2f3845"/><stop offset="1" stop-color="#87909a"/></radialGradient>
  <linearGradient id="metal" x1="0" y1="0" x2="1" y2="1"><stop stop-color="#172536"/><stop offset=".45" stop-color="#486177"/><stop offset="1" stop-color="#1b2c3e"/></linearGradient>
  <filter id="glow"><feGaussianBlur stdDeviation="5" result="b"/><feMerge><feMergeNode in="b"/><feMergeNode in="SourceGraphic"/></feMerge></filter>
</defs>
<rect width="1440" height="420" fill="url(#sky)"/>
<g fill="#c7ddff" opacity=".65">
  <circle cx="82" cy="46" r="2"/><circle cx="166" cy="76" r="1.6"/><circle cx="294" cy="38" r="2.2"/><circle cx="403" cy="71" r="1.2"/><circle cx="527" cy="30" r="1.7"/><circle cx="642" cy="62" r="2.1"/><circle cx="754" cy="43" r="1.3"/><circle cx="861" cy="79" r="2"/><circle cx="982" cy="35" r="1.5"/><circle cx="1104" cy="68" r="2.2"/><circle cx="1230" cy="39" r="1.4"/><circle cx="1362" cy="70" r="2"/>
</g>
<path d="M0 228L86 201l92 20 96-36 96 29 112-34 104 38 119-42 117 37 113-30 118 40 106-31 101 28v200H0z" fill="url(#ground)"/>
<path d="M0 230L86 203l92 20 96-36 96 29 112-34 104 38 119-42 117 37 113-30 118 40 106-31 101 28" fill="none" stroke="#9ca8b6" stroke-width="5" opacity=".72"/>
<g opacity=".88">
  <ellipse cx="164" cy="310" rx="82" ry="31" fill="url(#crater)"/><ellipse cx="164" cy="303" rx="49" ry="14" fill="#171f2a"/>
  <ellipse cx="452" cy="347" rx="58" ry="23" fill="url(#crater)"/><ellipse cx="452" cy="341" rx="33" ry="10" fill="#171f2a"/>
  <ellipse cx="1042" cy="329" rx="95" ry="36" fill="url(#crater)"/><ellipse cx="1042" cy="321" rx="58" ry="17" fill="#171f2a"/>
  <ellipse cx="1315" cy="370" rx="47" ry="18" fill="url(#crater)"/><ellipse cx="1315" cy="365" rx="28" ry="8" fill="#171f2a"/>
</g>
<g transform="translate(240 160)">
  <path d="M-78 73h156l-18 44H-60z" fill="#111b28" stroke="#6d8298" stroke-width="4"/>
  <path d="M-58 73Q0-10 58 73" fill="url(#metal)" stroke="#9fb2c7" stroke-width="5"/>
  <rect x="-16" y="13" width="32" height="60" rx="4" fill="#1d3448"/>
  <rect x="-10" y="21" width="20" height="18" fill="#61e8ff" opacity=".65" filter="url(#glow)"/>
  <path d="M0 13V-45M0-38l-22 18M0-31l25 15" stroke="#b8d6e7" stroke-width="5"/>
  <circle cy="-49" r="8" fill="#ff637d" filter="url(#glow)"/>
  <g fill="#ffcc6d"><circle cx="-42" cy="86" r="4"/><circle cx="0" cy="86" r="4"/><circle cx="42" cy="86" r="4"/></g>
</g>
<g transform="translate(1190 172)">
  <path d="M-92 70h184l-20 50H-72z" fill="#111b28" stroke="#6d8298" stroke-width="4"/>
  <path d="M-70 70Q0-20 70 70" fill="url(#metal)" stroke="#9fb2c7" stroke-width="5"/>
  <rect x="-38" y="30" width="76" height="40" rx="4" fill="#182a3a"/>
  <rect x="-29" y="38" width="58" height="22" fill="#ff7fb6" opacity=".38"/>
  <path d="M0 18V-52M0-42l-28 17M0-35l31 20" stroke="#b8d6e7" stroke-width="5"/>
  <circle cy="-56" r="8" fill="#5ff0ff" filter="url(#glow)"/>
  <g fill="#68e6ff"><circle cx="-50" cy="86" r="4"/><circle cx="0" cy="86" r="4"/><circle cx="50" cy="86" r="4"/></g>
</g>
<g transform="translate(720 238)">
  <path d="M-48 45L0-12l48 57-16 53h-64z" fill="#1b2b3c" stroke="#71869c" stroke-width="5"/>
  <rect x="-18" y="8" width="36" height="70" rx="5" fill="#233d52"/>
  <rect x="-11" y="17" width="22" height="34" fill="#57e5ff" opacity=".55" filter="url(#glow)"/>
  <circle cy="-10" r="8" fill="#ffd368"/>
  <path d="M-70 102H70" stroke="#101722" stroke-width="13"/>
</g>
<g transform="translate(845 292)">
  <path d="M-72 28h144l-18 34H-54z" fill="#17283a" stroke="#5b7890" stroke-width="4"/>
  <path d="M-46 28l20-28h73l25 28" fill="#3a5368" stroke="#7ba0b9" stroke-width="4"/>
  <rect x="-14" y="8" width="42" height="13" fill="#ff7d9f" opacity=".7"/>
  <circle cx="-43" cy="62" r="14" fill="#0b1018" stroke="#77889a" stroke-width="4"/><circle cx="43" cy="62" r="14" fill="#0b1018" stroke="#77889a" stroke-width="4"/>
</g>
<g opacity=".5" fill="#aab4c0"><circle cx="612" cy="264" r="5"/><circle cx="878" cy="242" r="4"/><circle cx="932" cy="286" r="6"/><circle cx="365" cy="256" r="4"/><circle cx="1118" cy="281" r="5"/></g>
</svg>