<svg xmlns="http://www.w3.org/2000/svg" width="720" height="320" viewBox="0 0 720 320">
<defs>
  <linearGradient id="hull" x1="0" y1="0" x2="1" y2="1"><stop stop-color="#18283d"/><stop offset=".45" stop-color="#526b86"/><stop offset="1" stop-color="#132238"/></linearGradient>
  <linearGradient id="glass" x1="0" y1="0" x2="0" y2="1"><stop stop-color="#b7f5ff" stop-opacity=".9"/><stop offset="1" stop-color="#2e80aa" stop-opacity=".35"/></linearGradient>
  <radialGradient id="core"><stop stop-color="#efffff"/><stop offset=".25" stop-color="#70eaff"/><stop offset="1" stop-color="#1e75a4" stop-opacity=".15"/></radialGradient>
  <filter id="glow"><feGaussianBlur stdDeviation="6" result="b"/><feMerge><feMergeNode in="b"/><feMergeNode in="SourceGraphic"/></feMerge></filter>
</defs>
<g transform="translate(360 160)">
  <ellipse rx="252" ry="83" fill="none" stroke="#5d8ec0" stroke-width="14" opacity=".45"/>
  <ellipse rx="214" ry="64" fill="none" stroke="#85dfff" stroke-width="4" opacity=".75"/>
  <path d="M-270-18h95l35-36h280l35 36h95v42h-95l-35 36h-280l-35-36h-95z" fill="url(#hull)" stroke="#a7c6dd" stroke-width="5"/>
  <path d="M-143-44h286l28 44-28 44h-286l-28-44z" fill="#16283d" stroke="#6e9cba" stroke-width="4"/>
  <rect x="-102" y="-29" width="204" height="58" rx="18" fill="url(#glass)" stroke="#b6efff" stroke-width="4"/>
  <g fill="#dff8ff" opacity=".86">
    <rect x="-88" y="-18" width="28" height="14" rx="3"/><rect x="-50" y="-18" width="28" height="14" rx="3"/><rect x="-12" y="-18" width="28" height="14" rx="3"/><rect x="26" y="-18" width="28" height="14" rx="3"/><rect x="64" y="-18" width="28" height="14" rx="3"/>
    <rect x="-88" y="5" width="28" height="14" rx="3"/><rect x="-50" y="5" width="28" height="14" rx="3"/><rect x="-12" y="5" width="28" height="14" rx="3"/><rect x="26" y="5" width="28" height="14" rx="3"/><rect x="64" y="5" width="28" height="14" rx="3"/>
  </g>
  <circle r="44" fill="#142437" stroke="#9bc7df" stroke-width="6"/>
  <circle r="27" fill="url(#core)" filter="url(#glow)"/>
  <path d="M0-27l18 14v26L0 27-18 13v-26z" fill="none" stroke="#f4fbff" stroke-width="4"/>
  <path d="M-198-60v-55M-198-105l-34-25M-198-102l35-27" stroke="#b8cfdf" stroke-width="7"/>
  <circle cx="-198" cy="-121" r="10" fill="#ff5e77" filter="url(#glow)"/>
  <path d="M198-60v-55M198-105l-34-25M198-102l35-27" stroke="#b8cfdf" stroke-width="7"/>
  <circle cx="198" cy="-121" r="10" fill="#62eaff" filter="url(#glow)"/>
  <path d="M-236 37l-46 48h72l35-35zM236 37l46 48h-72l-35-35z" fill="#273d56" stroke="#7396b2" stroke-width="5"/>
  <path d="M-152 48l-18 73h62l22-68zM152 48l18 73h-62l-22-68z" fill="#1b3048" stroke="#6b91af" stroke-width="5"/>
  <g fill="#ffcc67" filter="url(#glow)"><circle cx="-230" cy="5" r="5"/><circle cx="-192" cy="5" r="5"/><circle cx="192" cy="5" r="5"/><circle cx="230" cy="5" r="5"/></g>
  <g fill="#68eaff" opacity=".9"><circle cx="-135" cy="-50" r="4"/><circle cx="-110" cy="-50" r="4"/><circle cx="110" cy="-50" r="4"/><circle cx="135" cy="-50" r="4"/></g>
  <path d="M-47-78h94l14 18H-61z" fill="#314d67" stroke="#7da8c5" stroke-width="4"/>
  <path d="M-5-78v-52M5-78v-52" stroke="#bdd6e6" stroke-width="5"/>
  <ellipse cy="-142" rx="48" ry="13" fill="#2d4f6c" stroke="#84c9e7" stroke-width="5"/>
</g>
</svg>