<svg xmlns="http://www.w3.org/2000/svg" width="256" height="256"><rect width="256" height="256" rx="28" fill="#150912"/><circle cx="128" cy="112" r="82" fill="#07050b" stroke="#ff5f91" stroke-width="8"/><path d="M82 90c0-37 20-58 46-58s46 21 46 58v54c0 32-21 55-46 55s-46-23-46-55z" fill="#9a5b48"/><path d="M82 95c6-50 28-67 51-62 28 6 43 27 41 67-22-16-47-21-92-5z" fill="#201014"/><path d="M91 139c20 30 54 30 74 0-7 39-21 58-37 58s-30-19-37-58z" fill="#32181b"/><path d="M61 218c12-55 39-84 67-84s55 29 67 84" fill="#6d263e" stroke="#ff5f91" stroke-width="6"/><text x="128" y="239" text-anchor="middle" font-family="sans-serif" font-weight="800" font-size="18" fill="#fff2f8">GRIT MERCER</text></svg>