<svg xmlns="http://www.w3.org/2000/svg" width="960" height="360" viewBox="0 0 960 360">
<defs>
 <linearGradient id="space" x1="0" y1="0" x2="1" y2="1"><stop stop-color="#07101c"/><stop offset="1" stop-color="#18253a"/></linearGradient>
 <linearGradient id="rock" x1="0" y1="0" x2="0" y2="1"><stop stop-color="#677486"/><stop offset="1" stop-color="#242d3a"/></linearGradient>
 <radialGradient id="he3"><stop stop-color="#fff7a6"/><stop offset=".35" stop-color="#59e5ff"/><stop offset="1" stop-color="#1a4165" stop-opacity="0"/></radialGradient>
 <filter id="g"><feGaussianBlur stdDeviation="6" result="b"/><feMerge><feMergeNode in="b"/><feMergeNode in="SourceGraphic"/></feMerge></filter>
</defs>
<rect width="960" height="360" rx="28" fill="url(#space)"/>
<g opacity=".35" fill="#b7d7ff"><circle cx="60" cy="42" r="2"/><circle cx="220" cy="75" r="1.5"/><circle cx="355" cy="36" r="2"/><circle cx="515" cy="70" r="1"/><circle cx="680" cy="41" r="2"/><circle cx="835" cy="82" r="1.5"/></g>

<g transform="translate(18 18)">
 <rect width="296" height="324" rx="22" fill="#111d2b" stroke="#9ec7d7" stroke-width="3"/>
 <path d="M0 244l54-38 56 18 62-50 67 29 57-19v140H0z" fill="url(#rock)"/>
 <g fill="#b9d1dc" stroke="#ecfbff" stroke-width="2"><path d="M74 225l28-69 28 69z"/><path d="M140 236l31-91 39 91z"/><path d="M214 239l19-58 24 58z"/></g>
 <g fill="#61e9ff" filter="url(#g)"><circle cx="102" cy="186" r="7"/><circle cx="173" cy="185" r="9"/><circle cx="236" cy="210" r="6"/></g>
 <path d="M49 247h196" stroke="#f4c66b" stroke-width="5" stroke-dasharray="15 8"/>
 <path d="M117 139v-44h62v44M128 111h40" fill="none" stroke="#81dfff" stroke-width="5"/>
 <text x="148" y="42" text-anchor="middle" font-family="sans-serif" font-size="21" font-weight="800" fill="#eefaff">RIDGE-7 ALLOY VEIN</text>
 <text x="148" y="69" text-anchor="middle" font-family="sans-serif" font-size="12" fill="#83e7ff">LUNAR ALLOY</text>
 <text x="148" y="294" text-anchor="middle" font-family="sans-serif" font-size="12" fill="#bdcad6">ARMOR • DOORS • TURRETS</text>
</g>

<g transform="translate(332 18)">
 <rect width="296" height="324" rx="22" fill="#101c2a" stroke="#72e9ff" stroke-width="3"/>
 <path d="M0 250l66-32 59 14 55-43 66 27 50-19v127H0z" fill="#35404d"/>
 <ellipse cx="149" cy="209" rx="88" ry="25" fill="#173b57" stroke="#5fe6ff" stroke-width="4"/>
 <ellipse cx="149" cy="204" rx="62" ry="15" fill="url(#he3)" opacity=".95"/>
 <g fill="none" stroke="#bff8ff" stroke-width="5"><path d="M91 200v-86h29v82M177 196v-101h31v107"/><path d="M104 128h89M105 151h90"/></g>
 <g fill="#56eaff" filter="url(#g)"><circle cx="149" cy="197" r="14"/><circle cx="113" cy="207" r="7"/><circle cx="190" cy="209" r="8"/></g>
 <path d="M63 246h174" stroke="#ffd66d" stroke-width="5" stroke-dasharray="14 8"/>
 <text x="148" y="42" text-anchor="middle" font-family="sans-serif" font-size="21" font-weight="800" fill="#eefaff">MARE HELIUM-3 VENT</text>
 <text x="148" y="69" text-anchor="middle" font-family="sans-serif" font-size="12" fill="#83e7ff">HELIUM-3</text>
 <text x="148" y="294" text-anchor="middle" font-family="sans-serif" font-size="12" fill="#bdcad6">POWER • SHIPS • RESEARCH</text>
</g>

<g transform="translate(646 18)">
 <rect width="296" height="324" rx="22" fill="#111a28" stroke="#d598ff" stroke-width="3"/>
 <path d="M0 246l54-28 62 20 52-42 72 26 56-11v113H0z" fill="#313844"/>
 <g transform="translate(58 106) rotate(-9 90 70)">
  <path d="M12 44h164l-19 77H37z" fill="#334a60" stroke="#b9d9e9" stroke-width="5"/>
  <rect x="62" y="4" width="65" height="54" rx="8" fill="#18283a" stroke="#72e8ff" stroke-width="4"/>
  <path d="M71 18h47M71 29h38M71 40h44" stroke="#69e9d2" stroke-width="4"/>
  <circle cx="32" cy="81" r="19" fill="#1a2430" stroke="#8ba4b7" stroke-width="5"/><circle cx="157" cy="81" r="19" fill="#1a2430" stroke="#8ba4b7" stroke-width="5"/>
  <path d="M50 70l18-19M135 54l21 17" stroke="#ff6c8a" stroke-width="5"/>
 </g>
 <g fill="#d49aff" filter="url(#g)"><rect x="82" y="221" width="30" height="18" rx="3"/><rect x="137" y="210" width="32" height="21" rx="3"/><rect x="189" y="223" width="29" height="17" rx="3"/></g>
 <text x="148" y="42" text-anchor="middle" font-family="sans-serif" font-size="21" font-weight="800" fill="#eefaff">WRECKED AUTHORITY RELAY</text>
 <text x="148" y="69" text-anchor="middle" font-family="sans-serif" font-size="12" fill="#d6a6ff">AUTHORITY DATA CORES</text>
 <text x="148" y="294" text-anchor="middle" font-family="sans-serif" font-size="12" fill="#bdcad6">HACKING • JAMMERS • BLACK TECH</text>
</g>
</svg>