<svg xmlns="http://www.w3.org/2000/svg" width="960" height="300" viewBox="0 0 960 300">
<defs>
 <linearGradient id="bg" x1="0" y1="0" x2="1" y2="1"><stop stop-color="#07111e"/><stop offset="1" stop-color="#152840"/></linearGradient>
 <linearGradient id="metal" x1="0" y1="0" x2="0" y2="1"><stop stop-color="#d4e4ec"/><stop offset=".5" stop-color="#607a8e"/><stop offset="1" stop-color="#26394b"/></linearGradient>
 <filter id="g"><feGaussianBlur stdDeviation="4" result="b"/><feMerge><feMergeNode in="b"/><feMergeNode in="SourceGraphic"/></feMerge></filter>
</defs>
<rect width="960" height="300" rx="26" fill="url(#bg)"/>
<g transform="translate(15 16)">
 <rect width="220" height="268" rx="18" fill="#0e1a29" stroke="#63e6ff" stroke-width="3"/>
 <path d="M110 198V86M69 132q41-44 82 0M49 112q61-67 122 0" fill="none" stroke="#76ecff" stroke-width="7" filter="url(#g)"/>
 <circle cx="110" cy="199" r="28" fill="url(#metal)" stroke="#d8f5ff" stroke-width="4"/><circle cx="110" cy="199" r="9" fill="#ffce68"/>
 <text x="110" y="35" text-anchor="middle" font-family="sans-serif" font-size="18" font-weight="800" fill="#f2fbff">SIGNAL JAMMER</text>
 <text x="110" y="248" text-anchor="middle" font-family="sans-serif" font-size="11" fill="#8feaff">BLOCKS SCANS & HACKS</text>
</g>
<g transform="translate(250 16)">
 <rect width="220" height="268" rx="18" fill="#0e1a29" stroke="#ffbe68" stroke-width="3"/>
 <path d="M68 211h84l-12-67H80z" fill="url(#metal)" stroke="#e7f0f5" stroke-width="4"/>
 <circle cx="110" cy="126" r="31" fill="#25394c" stroke="#d5eaf3" stroke-width="4"/><path d="M110 95V55M83 126H47M137 126h36" stroke="#9fb6c7" stroke-width="10"/>
 <path d="M99 126h92" stroke="#ffcb69" stroke-width="8" filter="url(#g)"/><circle cx="192" cy="126" r="7" fill="#ff6d77"/>
 <text x="110" y="35" text-anchor="middle" font-family="sans-serif" font-size="18" font-weight="800" fill="#fff7e8">SENTRY GRID</text>
 <text x="110" y="248" text-anchor="middle" font-family="sans-serif" font-size="11" fill="#ffd18a">STOPS BREACH TEAMS</text>
</g>
<g transform="translate(485 16)">
 <rect width="220" height="268" rx="18" fill="#0e1a29" stroke="#8db5d6" stroke-width="3"/>
 <path d="M52 59h116v160H52z" fill="url(#metal)" stroke="#e5f1f6" stroke-width="5"/>
 <path d="M73 59v160M147 59v160M52 108h116M52 170h116" stroke="#24384c" stroke-width="8"/>
 <circle cx="110" cy="139" r="17" fill="#172535" stroke="#69eaff" stroke-width="4"/><circle cx="110" cy="139" r="5" fill="#ffcf68"/>
 <text x="110" y="35" text-anchor="middle" font-family="sans-serif" font-size="18" font-weight="800" fill="#f1f8ff">BLAST DOORS</text>
 <text x="110" y="248" text-anchor="middle" font-family="sans-serif" font-size="11" fill="#9fc1da">SLOWS RIOT VANGUARDS</text>
</g>
<g transform="translate(720 16)">
 <rect width="220" height="268" rx="18" fill="#0e1a29" stroke="#bd8cff" stroke-width="3"/>
 <path d="M37 213q17-130 73-130t73 130" fill="#172637" stroke="#a98cff" stroke-width="7"/>
 <path d="M55 213q15-101 55-101t55 101" fill="#050b13" stroke="#6ee8ff" stroke-width="4"/>
 <path d="M110 112v101M80 173h60" stroke="#55406f" stroke-width="5"/>
 <path d="M76 217h68" stroke="#ffce68" stroke-width="7" stroke-dasharray="10 7"/>
 <text x="110" y="35" text-anchor="middle" font-family="sans-serif" font-size="18" font-weight="800" fill="#f6efff">ESCAPE TUNNELS</text>
 <text x="110" y="248" text-anchor="middle" font-family="sans-serif" font-size="11" fill="#c8a5ff">REDUCES CAPTURE RISK</text>
</g>
</svg>