<svg xmlns="http://www.w3.org/2000/svg" width="960" height="360" viewBox="0 0 960 360">
<defs>
 <linearGradient id="bg" x1="0" y1="0" x2="1" y2="1"><stop stop-color="#08111e"/><stop offset="1" stop-color="#18283e"/></linearGradient>
 <linearGradient id="glass" x1="0" y1="0" x2="0" y2="1"><stop stop-color="#7eeaff" stop-opacity=".7"/><stop offset="1" stop-color="#244965" stop-opacity=".25"/></linearGradient>
 <filter id="g"><feGaussianBlur stdDeviation="4" result="b"/><feMerge><feMergeNode in="b"/><feMergeNode in="SourceGraphic"/></feMerge></filter>
</defs>
<rect width="960" height="360" rx="26" fill="url(#bg)"/>
<g transform="translate(18 18)">
 <rect width="296" height="324" rx="20" fill="#101b29" stroke="#6ee7ff" stroke-width="3"/>
 <rect x="25" y="78" width="246" height="174" rx="12" fill="#1d2a39" stroke="#7294aa" stroke-width="3"/>
 <path d="M25 129h246M25 188h246M82 78v174M157 78v174M226 78v174" stroke="#435a6d" stroke-width="4"/>
 <g fill="#ffd06b" filter="url(#g)"><rect x="42" y="93" width="22" height="30" rx="4"/><circle cx="119" cy="107" r="13"/><path d="M178 91h27v31h-27z"/><path d="M242 92l12 15-12 15-12-15z"/></g>
 <g fill="#bd8dff"><circle cx="53" cy="158" r="12"/><rect x="101" y="145" width="33" height="25" rx="4"/><path d="M179 170l14-28 14 28z"/><circle cx="240" cy="158" r="11"/></g>
 <g fill="#6fe9d4"><rect x="41" y="205" width="26" height="28" rx="4"/><path d="M108 207h29v24h-29z"/><circle cx="192" cy="219" r="13"/><path d="M231 232l12-28 13 28z"/></g>
 <text x="148" y="41" text-anchor="middle" font-family="sans-serif" font-size="20" font-weight="800" fill="#f4fbff">EVIDENCE ROOM THEFT</text>
 <text x="148" y="279" text-anchor="middle" font-family="sans-serif" font-size="12" fill="#8feaff">FIND • STEAL • ESCAPE</text>
</g>
<g transform="translate(332 18)">
 <rect width="296" height="324" rx="20" fill="#101b29" stroke="#ff7f9d" stroke-width="3"/>
 <g stroke="#4a718a" stroke-width="4"><path d="M53 100l54 43 49-54 54 55 34-40"/><path d="M59 213l58-50 50 43 59-58"/><path d="M85 89l38 113M154 88l-14 127M226 96l-48 114"/></g>
 <g fill="#112334" stroke="#75eaff" stroke-width="4">
  <circle cx="53" cy="100" r="18"/><circle cx="107" cy="143" r="18"/><circle cx="156" cy="89" r="18"/><circle cx="210" cy="144" r="18"/><circle cx="244" cy="104" r="18"/><circle cx="117" cy="163" r="18"/>
 </g>
 <g fill="#ff7898" filter="url(#g)"><circle cx="53" cy="100" r="6"/><circle cx="107" cy="143" r="6"/><circle cx="156" cy="89" r="6"/><circle cx="210" cy="144" r="6"/><circle cx="244" cy="104" r="6"/><circle cx="117" cy="163" r="6"/></g>
 <rect x="58" y="233" width="180" height="22" rx="11" fill="#1b3042"/><rect x="58" y="233" width="92" height="22" rx="11" fill="#ff718f" opacity=".7"/>
 <text x="148" y="41" text-anchor="middle" font-family="sans-serif" font-size="20" font-weight="800" fill="#fff2f5">LAW NETWORK HACK</text>
 <text x="148" y="279" text-anchor="middle" font-family="sans-serif" font-size="12" fill="#ff9db2">CRACK • ERASE • SPOOF</text>
</g>
<g transform="translate(646 18)">
 <rect width="296" height="324" rx="20" fill="#101b29" stroke="#bd8cff" stroke-width="3"/>
 <path d="M148 84l82 54-31 94H97l-31-94z" fill="#17263a" stroke="#9d7cf0" stroke-width="5"/>
 <g fill="url(#glass)" stroke="#72e7ff" stroke-width="4"><circle cx="148" cy="115" r="24"/><circle cx="205" cy="154" r="24"/><circle cx="183" cy="213" r="24"/><circle cx="113" cy="213" r="24"/><circle cx="91" cy="154" r="24"/></g>
 <path d="M148 115l57 39-22 59h-70l-22-59z" fill="none" stroke="#f2cc6b" stroke-width="4" stroke-dasharray="10 7"/>
 <text x="148" y="41" text-anchor="middle" font-family="sans-serif" font-size="20" font-weight="800" fill="#f7f1ff">SYNDICATE CIPHER</text>
 <text x="148" y="279" text-anchor="middle" font-family="sans-serif" font-size="12" fill="#c7a8ff">DECODE • RAID • DOMINATE</text>
</g>
</svg>