<svg xmlns="http://www.w3.org/2000/svg" width="512" height="320" viewBox="0 0 512 320"><rect width="512" height="320" rx="28" fill="#07111d"/><path d="M56 236L256 115l200 121-200 61z" fill="#151b29" stroke="#8d60d5" stroke-width="5"/><path d="M104 214V108l152-71 152 71v106l-152 72z" fill="#272140" stroke="#b96cff" stroke-width="6"/><g fill="#151428" stroke="#d16dff" stroke-width="4"><rect x="137" y="105" width="238" height="38" rx="7"/><rect x="137" y="157" width="238" height="38" rx="7"/><rect x="137" y="209" width="238" height="28" rx="7"/></g><path d="M151 124h49l16-12 22 24 26-20 22 8h74M151 176h62l18-16 24 28 29-21 25 9h51" fill="none" stroke="#ff6ead" stroke-width="5"/><text x="256" y="305" text-anchor="middle" font-family="sans-serif" font-size="26" font-weight="800" fill="#fff4fb">SIGNAL DEN</text></svg>